<?xml version="1.0" encoding="UTF-8" standalone="no"?>
<!DOCTYPE svg PUBLIC "-//W3C//DTD SVG 1.1//EN" "http://www.w3.org/Graphics/SVG/1.1/DTD/svg11.dtd">
<svg width="100%" height="100%" viewBox="0 0 552 292" version="1.1" xmlns="http://www.w3.org/2000/svg" xmlns:xlink="http://www.w3.org/1999/xlink" xml:space="preserve" xmlns:serif="http://www.serif.com/" style="fill-rule:evenodd;clip-rule:evenodd;stroke-linejoin:round;stroke-miterlimit:2;">
    <g id="svg8" transform="matrix(2.57636,0,0,2.57636,44.997,31.6095)">
        <clipPath id="_clip1">
            <rect x="7.8" y="6.6" width="51.427" height="75.6"/>
        </clipPath>
        <g clip-path="url(#_clip1)">
            <g id="Ebene-1" serif:id="Ebene 1">
                <path id="path907" d="M7.8,6.6L7.8,63.4L57,35L7.8,6.6ZM18.6,25.3L35.3,35L18.6,44.7L18.6,25.3ZM34.5,51.4L7.8,66.8L34.5,82.2L34.5,51.4Z" style="fill:url(#_Linear2);fill-rule:nonzero;"/>
                <path id="path909" d="M34.5,51.4L27.1,69.6L34.5,82.2L34.5,51.4Z" style="fill-opacity:0.1;fill-rule:nonzero;"/>
                <path id="path911" d="M7.8,6.6L18.6,25.3L35.3,35L56.9,35L7.8,6.6Z" style="fill-opacity:0.1;fill-rule:nonzero;"/>
                <path id="path913" d="M7.8,63.3L18.6,44.6L18.6,25.3L7.8,6.6L7.8,63.4L7.8,63.3Z" style="fill-opacity:0.2;fill-rule:nonzero;"/>
                <path id="path915" d="M34.5,82.2L7.8,66.8L27.1,69.6L34.5,82.2Z" style="fill-opacity:0.2;fill-rule:nonzero;"/>
                <g id="g861">
                    <path id="path917" d="M72.6,22.8L76.1,27.8L88.1,27.8C88.9,27.8 89.7,28 90.4,28.3C91.2,28.6 91.9,29.1 92.5,29.8C93.1,30.5 93.5,31.3 93.8,32.2C94.1,33.1 94.3,34.1 94.3,35.2C94.3,37.3 93.8,39.1 92.6,40.5C91.5,41.9 90.1,42.6 88.4,42.6L72.5,42.6L72.5,61L78.5,61L78.5,47.6L88.8,47.6C90.5,47.6 92.1,47.2 93.5,46.6C94.9,45.9 96.1,45 97.2,43.8C98.2,42.6 99,41.3 99.6,39.9C100.2,38.4 100.4,36.8 100.4,35.3C100.4,33.8 100.1,32.3 99.5,30.9C98.9,29.4 98.1,28 97,26.9C95.9,25.7 94.7,24.8 93.2,24.1C91.7,23.4 93.2,24.1 93.2,24.1C91.8,23.4 90.2,23 88.5,23L72.5,23L72.6,22.8Z" style="fill-rule:nonzero;"/>
                    <path id="path919" d="M117.4,22.8L121,27.8L133.7,27.8C134.5,27.8 135.3,28 136.1,28.4C136.9,28.8 137.6,29.3 138.1,30C138.7,30.6 139.2,31.4 139.5,32.3C139.8,33.2 140,34.2 140,35.2C140,36.2 139.9,37.1 139.6,38C139.3,38.9 138.9,39.6 138.4,40.3C137.9,41 138.4,40.3 138.4,40.3C137.9,41 137.3,41.5 136.5,41.9C135.8,42.3 135,42.5 134.1,42.5L117.5,42.5L117.5,60.9L123.5,60.9L123.5,47.5L132.5,47.5L140.6,60.9L147.2,60.9L138.4,46.4L139.3,46C141.3,45.1 142.9,43.7 144.1,41.8C145.3,39.8 145.9,37.6 145.9,35.2C145.9,32.8 145.6,32.2 145,30.8C144.4,29.3 143.6,27.9 142.5,26.8C141.4,25.6 140.2,24.7 138.7,24C137.2,23.3 138.7,24 138.7,24C137.3,23.3 135.7,22.9 134,22.9L117.2,22.9L117.4,22.8Z" style="fill-rule:nonzero;"/>
                    <path id="path921" d="M171.4,23.2L165.4,26.4L165.4,60.9L171.4,60.9L171.4,23.2Z" style="fill-rule:nonzero;"/>
                    <path id="path923" d="M204.4,22.5C202.5,22.5 200.7,22.8 199,23.3C197.3,23.8 195.9,24.5 194.6,25.5C193.4,26.5 192.5,27.7 191.8,29.1C191.1,30.5 190.8,32.2 190.8,34.1C190.8,36 191,36.7 191.4,37.7C191.8,38.7 192.5,39.5 193.3,40.3C194.2,41.1 195.2,41.7 196.6,42.3C198,42.9 199.6,43.4 201.5,43.9C203.1,44.4 204.5,44.8 205.8,45.1C207.1,45.5 208.2,45.9 209.2,46.4C210.2,46.9 211,47.5 211.6,48.2C212.2,49 212.5,49.9 212.5,50.9C212.5,54.3 209.8,55.9 205.2,55.9C200.6,55.9 202,55.7 200.5,55.3C199,54.9 197.6,54.5 196.4,53.9C195.2,53.3 196.4,53.9 196.4,53.9C195.2,53.3 194.1,52.8 193.2,52.2C192.3,51.6 193.2,52.2 193.2,52.2C192.7,51.9 192.5,51.7 192.2,51.4L189.7,56.4C191.8,57.8 194,59 196.6,59.8C199.4,60.7 202.3,61.1 205.2,61.1C208.1,61.1 208.9,60.9 210.6,60.5C212.3,60.1 213.8,59.4 215,58.6C216.3,57.7 217.3,56.6 218,55.3C218.7,53.9 219.1,52.2 219.1,50.2C219.1,48.2 218.8,47.1 218.3,46C217.8,44.8 217,43.9 216,43C215,42.2 213.7,41.5 212.2,40.9C210.7,40.3 208.9,39.8 207,39.2C205.5,38.8 204.2,38.5 203,38.1C201.8,37.7 200.8,37.3 200,36.9C199.2,36.4 198.5,35.9 198,35.3C197.5,34.7 198,35.3 198,35.3C197.5,34.6 197.3,33.7 197.3,32.7C197.3,31 197.9,29.7 199.2,28.7C200.5,27.8 202.3,27.3 204.5,27.3C206.7,27.3 207,27.5 208.3,27.8C209.5,28.1 210.6,28.5 211.6,29C212.6,29.4 213.5,29.9 214.2,30.3C214.5,30.5 214.6,30.6 214.9,30.8L217.4,26.2C215.8,25.2 214.2,24.3 212.1,23.6C209.8,22.7 207.4,22.3 204.6,22.3L204.4,22.5Z" style="fill-rule:nonzero;"/>
                </g>
            </g>
        </g>
    </g>
    <g transform="matrix(1.47248,0,0,1.47248,298.043,75.0558)">
        <path d="M107.7,8.07C99.347,4.246 90.528,1.533 81.47,0C80.23,2.216 79.109,4.496 78.11,6.83C68.461,5.376 58.649,5.376 49,6.83C48.001,4.496 46.879,2.216 45.64,-0C36.576,1.546 27.752,4.265 19.39,8.09C2.79,32.65 -1.71,56.6 0.54,80.21C10.261,87.392 21.143,92.855 32.71,96.36C35.315,92.857 37.62,89.14 39.6,85.25C35.838,83.845 32.208,82.112 28.75,80.07C29.66,79.41 30.55,78.73 31.41,78.07C51.768,87.644 75.372,87.644 95.73,78.07C96.6,78.78 97.49,79.46 98.39,80.07C94.926,82.115 91.288,83.852 87.52,85.26C89.498,89.149 91.803,92.862 94.41,96.36C105.987,92.869 116.877,87.409 126.6,80.22C129.24,52.84 122.09,29.11 107.7,8.07ZM42.45,65.69C36.18,65.69 31,60 31,53C31,46 36,40.26 42.43,40.26C48.86,40.26 54,46 53.89,53C53.78,60 48.84,65.69 42.45,65.69ZM84.69,65.69C78.41,65.69 73.25,60 73.25,53C73.25,46 78.25,40.26 84.69,40.26C91.13,40.26 96.23,46 96.12,53C96.01,60 91.08,65.69 84.69,65.69Z" style="fill:rgb(88,101,242);fill-rule:nonzero;"/>
    </g>
    <g transform="matrix(0.838485,0,0,0.838485,22.5084,73.7328)">
        <g transform="matrix(266.667,0,0,266.667,308.311,173.167)">
        </g>
        <text x="212.217px" y="173.167px" style="font-family:'Inter-Regular', 'Inter';font-size:266.667px;fill:rgb(128,128,128);">/</text>
    </g>
    <defs>
        <linearGradient id="_Linear2" x1="0" y1="0" x2="1" y2="0" gradientUnits="userSpaceOnUse" gradientTransform="matrix(14.08,59.84,-59.84,14.08,36.66,21.96)"><stop offset="0" style="stop-color:rgb(255,142,5);stop-opacity:1"/><stop offset="0.2" style="stop-color:rgb(251,20,20);stop-opacity:1"/><stop offset="0.5" style="stop-color:rgb(187,26,253);stop-opacity:1"/><stop offset="0.7" style="stop-color:rgb(58,86,255);stop-opacity:1"/><stop offset="1" style="stop-color:rgb(0,218,169);stop-opacity:1"/></linearGradient>
    </defs>
</svg>
