<?xml version="1.0" encoding="UTF-8" standalone="no"?>
<!DOCTYPE svg PUBLIC "-//W3C//DTD SVG 1.1//EN" "http://www.w3.org/Graphics/SVG/1.1/DTD/svg11.dtd">
<svg width="100%" height="100%" viewBox="0 0 1176 200" version="1.1" xmlns="http://www.w3.org/2000/svg" xmlns:xlink="http://www.w3.org/1999/xlink" xml:space="preserve" xmlns:serif="http://www.serif.com/" style="fill-rule:evenodd;clip-rule:evenodd;stroke-linejoin:round;stroke-miterlimit:2;">
    <g id="Ebene-1" serif:id="Ebene 1" transform="matrix(1.75175,0,0,1.75175,-0.377642,22.2225)">
        <path id="path907" d="M7.8,6.6L7.8,63.4L57,35L7.8,6.6ZM18.6,25.3L35.3,35L18.6,44.7L18.6,25.3ZM34.5,51.4L7.8,66.8L34.5,82.2L34.5,51.4Z" style="fill:url(#_Linear1);fill-rule:nonzero;"/>
        <path id="path909" d="M34.5,51.4L27.1,69.6L34.5,82.2L34.5,51.4Z" style="fill-opacity:0.1;fill-rule:nonzero;"/>
        <path id="path911" d="M7.8,6.6L18.6,25.3L35.3,35L56.9,35L7.8,6.6Z" style="fill-opacity:0.1;fill-rule:nonzero;"/>
        <path id="path913" d="M7.8,63.3L18.6,44.6L18.6,25.3L7.8,6.6L7.8,63.4L7.8,63.3Z" style="fill-opacity:0.2;fill-rule:nonzero;"/>
        <path id="path915" d="M34.5,82.2L7.8,66.8L27.1,69.6L34.5,82.2Z" style="fill-opacity:0.2;fill-rule:nonzero;"/>
        <g id="g861">
            <path id="path917" d="M72.6,22.8L76.1,27.8L88.1,27.8C88.9,27.8 89.7,28 90.4,28.3C91.2,28.6 91.9,29.1 92.5,29.8C93.1,30.5 93.5,31.3 93.8,32.2C94.1,33.1 94.3,34.1 94.3,35.2C94.3,37.3 93.8,39.1 92.6,40.5C91.5,41.9 90.1,42.6 88.4,42.6L72.5,42.6L72.5,61L78.5,61L78.5,47.6L88.8,47.6C90.5,47.6 92.1,47.2 93.5,46.6C94.9,45.9 96.1,45 97.2,43.8C98.2,42.6 99,41.3 99.6,39.9C100.2,38.4 100.4,36.8 100.4,35.3C100.4,33.8 100.1,32.3 99.5,30.9C98.9,29.4 98.1,28 97,26.9C95.9,25.7 94.7,24.8 93.2,24.1C91.7,23.4 93.2,24.1 93.2,24.1C91.8,23.4 90.2,23 88.5,23L72.5,23L72.6,22.8Z" style="fill:white;fill-rule:nonzero;"/>
            <path id="path919" d="M117.4,22.8L121,27.8L133.7,27.8C134.5,27.8 135.3,28 136.1,28.4C136.9,28.8 137.6,29.3 138.1,30C138.7,30.6 139.2,31.4 139.5,32.3C139.8,33.2 140,34.2 140,35.2C140,36.2 139.9,37.1 139.6,38C139.3,38.9 138.9,39.6 138.4,40.3C137.9,41 138.4,40.3 138.4,40.3C137.9,41 137.3,41.5 136.5,41.9C135.8,42.3 135,42.5 134.1,42.5L117.5,42.5L117.5,60.9L123.5,60.9L123.5,47.5L132.5,47.5L140.6,60.9L147.2,60.9L138.4,46.4L139.3,46C141.3,45.1 142.9,43.7 144.1,41.8C145.3,39.8 145.9,37.6 145.9,35.2C145.9,32.8 145.6,32.2 145,30.8C144.4,29.3 143.6,27.9 142.5,26.8C141.4,25.6 140.2,24.7 138.7,24C137.2,23.3 138.7,24 138.7,24C137.3,23.3 135.7,22.9 134,22.9L117.2,22.9L117.4,22.8Z" style="fill:white;fill-rule:nonzero;"/>
            <path id="path921" d="M171.4,23.2L165.4,26.4L165.4,60.9L171.4,60.9L171.4,23.2Z" style="fill:white;fill-rule:nonzero;"/>
            <path id="path923" d="M204.4,22.5C202.5,22.5 200.7,22.8 199,23.3C197.3,23.8 195.9,24.5 194.6,25.5C193.4,26.5 192.5,27.7 191.8,29.1C191.1,30.5 190.8,32.2 190.8,34.1C190.8,36 191,36.7 191.4,37.7C191.8,38.7 192.5,39.5 193.3,40.3C194.2,41.1 195.2,41.7 196.6,42.3C198,42.9 199.6,43.4 201.5,43.9C203.1,44.4 204.5,44.8 205.8,45.1C207.1,45.5 208.2,45.9 209.2,46.4C210.2,46.9 211,47.5 211.6,48.2C212.2,49 212.5,49.9 212.5,50.9C212.5,54.3 209.8,55.9 205.2,55.9C200.6,55.9 202,55.7 200.5,55.3C199,54.9 197.6,54.5 196.4,53.9C195.2,53.3 196.4,53.9 196.4,53.9C195.2,53.3 194.1,52.8 193.2,52.2C192.3,51.6 193.2,52.2 193.2,52.2C192.7,51.9 192.5,51.7 192.2,51.4L189.7,56.4C191.8,57.8 194,59 196.6,59.8C199.4,60.7 202.3,61.1 205.2,61.1C208.1,61.1 208.9,60.9 210.6,60.5C212.3,60.1 213.8,59.4 215,58.6C216.3,57.7 217.3,56.6 218,55.3C218.7,53.9 219.1,52.2 219.1,50.2C219.1,48.2 218.8,47.1 218.3,46C217.8,44.8 217,43.9 216,43C215,42.2 213.7,41.5 212.2,40.9C210.7,40.3 208.9,39.8 207,39.2C205.5,38.8 204.2,38.5 203,38.1C201.8,37.7 200.8,37.3 200,36.9C199.2,36.4 198.5,35.9 198,35.3C197.5,34.7 198,35.3 198,35.3C197.5,34.6 197.3,33.7 197.3,32.7C197.3,31 197.9,29.7 199.2,28.7C200.5,27.8 202.3,27.3 204.5,27.3C206.7,27.3 207,27.5 208.3,27.8C209.5,28.1 210.6,28.5 211.6,29C212.6,29.4 213.5,29.9 214.2,30.3C214.5,30.5 214.6,30.6 214.9,30.8L217.4,26.2C215.8,25.2 214.2,24.3 212.1,23.6C209.8,22.7 207.4,22.3 204.6,22.3L204.4,22.5Z" style="fill:white;fill-rule:nonzero;"/>
            <path id="path925" d="M268,24.2L254,45.8L240.2,24.2L232.6,60.9L238.6,60.9L242.9,39.8L254,55.6L265.1,39.8L269.4,61L275.6,61L267.9,24.2L268,24.2Z" style="fill:white;fill-rule:nonzero;"/>
        </g>
    </g>
    <g transform="matrix(1.15405,0,0,1.15405,575.686,44.3981)">
        <path d="M170.85,20.2L198.15,20.2C204.73,20.2 210.297,21.227 214.85,23.28C219.042,25.042 222.602,28.034 225.06,31.86C227.361,35.639 228.54,39.996 228.46,44.42C228.511,48.864 227.285,53.231 224.93,57C222.303,60.982 218.545,64.088 214.14,65.92C209.313,68.12 203.33,69.217 196.19,69.21L170.85,69.21L170.85,20.2ZM195.91,56.74C200.343,56.74 203.75,55.633 206.13,53.42C208.57,51.054 209.873,47.745 209.7,44.35C209.85,41.202 208.699,38.127 206.52,35.85C204.387,33.73 201.177,32.667 196.89,32.66L188.35,32.66L188.35,56.74L195.91,56.74Z" style="fill:rgb(88,101,242);fill-rule:nonzero;"/>
        <path d="M269.34,69.13C265.738,68.228 262.293,66.788 259.12,64.86L259.12,53.24C261.89,55.255 265.009,56.74 268.32,57.62C271.942,58.725 275.704,59.301 279.49,59.33C280.797,59.4 282.102,59.174 283.31,58.67C284.17,58.23 284.6,57.67 284.6,57.09C284.619,56.435 284.365,55.801 283.9,55.34C283.101,54.726 282.164,54.317 281.17,54.15L272.77,52.26C267.957,51.14 264.54,49.59 262.52,47.61C260.471,45.543 259.381,42.707 259.52,39.8C259.486,37.194 260.437,34.668 262.18,32.73C264.248,30.543 266.855,28.939 269.74,28.08C273.452,26.913 277.329,26.356 281.22,26.43C284.852,26.396 288.474,26.819 292,27.69C294.848,28.365 297.583,29.449 300.12,30.91L300.12,41.91C297.741,40.53 295.184,39.483 292.52,38.8C289.634,38.026 286.658,37.636 283.67,37.64C279.283,37.64 277.09,38.387 277.09,39.88C277.075,40.559 277.47,41.183 278.09,41.46C279.289,41.97 280.544,42.332 281.83,42.54L288.83,43.8C293.377,44.6 296.767,46 299,48C301.233,50 302.353,52.927 302.36,56.78C302.432,60.898 300.308,64.758 296.79,66.9C293.103,69.373 287.84,70.607 281,70.6C277.067,70.606 273.149,70.112 269.34,69.13Z" style="fill:rgb(88,101,242);fill-rule:nonzero;"/>
        <path d="M318.9,67.66C315.158,65.941 312.003,63.158 309.83,59.66C307.803,56.23 306.764,52.304 306.83,48.32C306.77,44.338 307.864,40.423 309.98,37.05C312.235,33.607 315.447,30.896 319.22,29.25C323.807,27.251 328.778,26.282 333.78,26.41C340.78,26.41 346.59,27.88 351.21,30.82L351.21,43.65C349.452,42.468 347.532,41.549 345.51,40.92C343.246,40.205 340.884,39.851 338.51,39.87C334.17,39.87 330.773,40.663 328.32,42.25C326.06,43.511 324.655,45.905 324.655,48.493C324.655,51.041 326.016,53.403 328.22,54.68C330.6,56.287 334.053,57.09 338.58,57.09C340.916,57.096 343.241,56.759 345.48,56.09C347.522,55.504 349.484,54.668 351.32,53.6L351.32,66C345.91,69.154 339.731,70.754 333.47,70.62C328.451,70.757 323.467,69.744 318.9,67.66Z" style="fill:rgb(88,101,242);fill-rule:nonzero;"/>
        <path d="M368.64,67.66C364.856,65.932 361.645,63.155 359.39,59.66C357.265,56.238 356.161,52.278 356.21,48.25C356.142,44.27 357.248,40.356 359.39,37C361.657,33.594 364.854,30.907 368.6,29.26C377.799,25.528 388.101,25.528 397.3,29.26C401.031,30.894 404.215,33.568 406.47,36.96C408.597,40.328 409.693,44.247 409.62,48.23C409.67,52.254 408.577,56.211 406.47,59.64C404.239,63.138 401.044,65.917 397.27,67.64C388.133,71.558 377.777,71.558 368.64,67.64L368.64,67.66ZM389.91,55.24C391.657,53.436 392.584,50.989 392.47,48.48C392.592,45.994 391.662,43.568 389.91,41.8C388.01,40.058 385.483,39.159 382.91,39.31C380.339,39.175 377.818,40.072 375.91,41.8C374.164,43.571 373.239,45.996 373.36,48.48C373.247,50.987 374.169,53.433 375.91,55.24C377.8,57.004 380.328,57.925 382.91,57.79C385.494,57.94 388.028,57.017 389.91,55.24Z" style="fill:rgb(88,101,242);fill-rule:nonzero;"/>
        <path d="M451.69,29L451.69,44.14C449.6,42.893 447.191,42.285 444.76,42.39C441.03,42.39 438.15,43.53 436.15,45.79C434.15,48.05 433.15,51.56 433.15,56.32L433.15,69.2L416,69.2L416,28.25L432.8,28.25L432.8,41.25C433.733,36.49 435.24,32.98 437.32,30.72C439.36,28.472 442.286,27.228 445.32,27.32C447.56,27.259 449.771,27.842 451.69,29Z" style="fill:rgb(88,101,242);fill-rule:nonzero;"/>
        <path d="M508.67,18.8L508.67,69.2L491.52,69.2L491.52,60C490.227,63.275 487.903,66.041 484.9,67.88C481.585,69.769 477.814,70.71 474,70.6C470.411,70.684 466.878,69.698 463.85,67.77C460.918,65.865 458.581,63.172 457.11,60C455.504,56.499 454.705,52.681 454.77,48.83C454.657,44.837 455.508,40.875 457.25,37.28C458.851,33.988 461.351,31.214 464.46,29.28C467.656,27.344 471.334,26.349 475.07,26.41C483.23,26.41 488.713,29.957 491.52,37.05L491.52,18.8L508.67,18.8ZM489,55C490.766,53.261 491.722,50.857 491.63,48.38C491.705,45.976 490.747,43.652 489,42C484.971,38.719 479.139,38.719 475.11,42C473.368,43.69 472.425,46.045 472.52,48.47C472.431,50.918 473.384,53.292 475.14,55C476.995,56.725 479.47,57.63 482,57.51C484.575,57.652 487.102,56.746 489,55Z" style="fill:rgb(88,101,242);fill-rule:nonzero;"/>
        <path d="M107.7,8.07C99.347,4.246 90.528,1.533 81.47,0C80.23,2.216 79.109,4.496 78.11,6.83C68.461,5.376 58.649,5.376 49,6.83C48.001,4.496 46.879,2.216 45.64,-0C36.576,1.546 27.752,4.265 19.39,8.09C2.79,32.65 -1.71,56.6 0.54,80.21C10.261,87.392 21.143,92.855 32.71,96.36C35.315,92.857 37.62,89.14 39.6,85.25C35.838,83.845 32.208,82.112 28.75,80.07C29.66,79.41 30.55,78.73 31.41,78.07C51.768,87.644 75.372,87.644 95.73,78.07C96.6,78.78 97.49,79.46 98.39,80.07C94.926,82.115 91.288,83.852 87.52,85.26C89.498,89.149 91.803,92.862 94.41,96.36C105.987,92.869 116.877,87.409 126.6,80.22C129.24,52.84 122.09,29.11 107.7,8.07ZM42.45,65.69C36.18,65.69 31,60 31,53C31,46 36,40.26 42.43,40.26C48.86,40.26 54,46 53.89,53C53.78,60 48.84,65.69 42.45,65.69ZM84.69,65.69C78.41,65.69 73.25,60 73.25,53C73.25,46 78.25,40.26 84.69,40.26C91.13,40.26 96.23,46 96.12,53C96.01,60 91.08,65.69 84.69,65.69Z" style="fill:rgb(88,101,242);fill-rule:nonzero;"/>
        <ellipse cx="242.92" cy="24.93" rx="8.55" ry="7.68" style="fill:rgb(88,101,242);"/>
        <path d="M234.36,37.9C239.829,40.199 246.001,40.199 251.47,37.9L251.47,69.42L234.36,69.42L234.36,37.9Z" style="fill:rgb(88,101,242);fill-rule:nonzero;"/>
    </g>
    <g transform="matrix(1,0,0,1,4.94579,45.5279)">
        <g transform="matrix(150,0,0,150,548.344,108.243)">
        </g>
        <text x="506.669px" y="108.243px" style="font-family:'ArialMT', 'Arial';font-size:150px;fill:rgb(128,128,128);">/</text>
    </g>
    <defs>
        <linearGradient id="_Linear1" x1="0" y1="0" x2="1" y2="0" gradientUnits="userSpaceOnUse" gradientTransform="matrix(14.08,59.84,-59.84,14.08,36.66,21.96)"><stop offset="0" style="stop-color:rgb(255,142,5);stop-opacity:1"/><stop offset="0.2" style="stop-color:rgb(251,20,20);stop-opacity:1"/><stop offset="0.5" style="stop-color:rgb(187,26,253);stop-opacity:1"/><stop offset="0.7" style="stop-color:rgb(58,86,255);stop-opacity:1"/><stop offset="1" style="stop-color:rgb(0,218,169);stop-opacity:1"/></linearGradient>
    </defs>
</svg>
